<mxfile host="app.diagrams.net" modified="2020-12-04T07:50:20.488Z" agent="5.0 (Macintosh)" etag="vckP6lhrXFqsFlkRSoPj" version="13.10.8" type="github">
  <diagram id="JcdzL6HRB9JIexcx_47-" name="Page-1">
    <mxGraphModel dx="946" dy="623" grid="1" gridSize="10" guides="1" tooltips="1" connect="1" arrows="1" fold="1" page="1" pageScale="1" pageWidth="850" pageHeight="1100" math="0" shadow="0">
      <root>
        <mxCell id="0" />
        <mxCell id="1" parent="0" />
        <mxCell id="jyvZzx-nxZELp0weIz12-1" value="People Corner Frontend" style="rounded=1;whiteSpace=wrap;html=1;" vertex="1" parent="1">
          <mxGeometry x="340" y="40" width="120" height="60" as="geometry" />
        </mxCell>
        <mxCell id="jyvZzx-nxZELp0weIz12-2" value="People Corner BFF" style="rounded=1;whiteSpace=wrap;html=1;" vertex="1" parent="1">
          <mxGeometry x="340" y="142" width="120" height="60" as="geometry" />
        </mxCell>
        <mxCell id="jyvZzx-nxZELp0weIz12-3" value="Employee Microservice" style="rounded=1;whiteSpace=wrap;html=1;" vertex="1" parent="1">
          <mxGeometry x="490" y="420" width="120" height="60" as="geometry" />
        </mxCell>
        <mxCell id="jyvZzx-nxZELp0weIz12-4" value="&lt;div&gt;Team&lt;/div&gt;&lt;div&gt; Microservice&lt;/div&gt;" style="rounded=1;whiteSpace=wrap;html=1;" vertex="1" parent="1">
          <mxGeometry x="130" y="280" width="120" height="60" as="geometry" />
        </mxCell>
        <mxCell id="jyvZzx-nxZELp0weIz12-5" value="&lt;div&gt;Celebrate &lt;br&gt;&lt;/div&gt;&lt;div&gt; Microservice&lt;/div&gt;" style="rounded=1;whiteSpace=wrap;html=1;" vertex="1" parent="1">
          <mxGeometry x="320" y="280" width="120" height="60" as="geometry" />
        </mxCell>
        <mxCell id="jyvZzx-nxZELp0weIz12-6" value="&lt;div&gt;Coffee Conversation&lt;br&gt;&lt;/div&gt;&lt;div&gt; Microservice&lt;/div&gt;" style="rounded=1;whiteSpace=wrap;html=1;" vertex="1" parent="1">
          <mxGeometry x="480" y="280" width="120" height="60" as="geometry" />
        </mxCell>
        <mxCell id="jyvZzx-nxZELp0weIz12-7" value="&lt;div&gt;Events&lt;br&gt;&lt;/div&gt;&lt;div&gt; Microservice&lt;/div&gt;" style="rounded=1;whiteSpace=wrap;html=1;" vertex="1" parent="1">
          <mxGeometry x="650" y="280" width="120" height="60" as="geometry" />
        </mxCell>
        <mxCell id="jyvZzx-nxZELp0weIz12-8" value="Postgresql " style="shape=cylinder3;whiteSpace=wrap;html=1;boundedLbl=1;backgroundOutline=1;size=15;" vertex="1" parent="1">
          <mxGeometry x="330" y="540" width="90" height="80" as="geometry" />
        </mxCell>
        <mxCell id="jyvZzx-nxZELp0weIz12-9" value="" style="endArrow=none;html=1;entryX=0.5;entryY=1;entryDx=0;entryDy=0;exitX=0.5;exitY=0;exitDx=0;exitDy=0;startArrow=classicThin;startFill=1;endFill=0;" edge="1" parent="1" source="jyvZzx-nxZELp0weIz12-2" target="jyvZzx-nxZELp0weIz12-1">
          <mxGeometry width="50" height="50" relative="1" as="geometry">
            <mxPoint x="400" y="350" as="sourcePoint" />
            <mxPoint x="450" y="300" as="targetPoint" />
          </mxGeometry>
        </mxCell>
        <mxCell id="jyvZzx-nxZELp0weIz12-10" value="" style="endArrow=classic;html=1;entryX=0.667;entryY=0.017;entryDx=0;entryDy=0;exitX=0.5;exitY=1;exitDx=0;exitDy=0;entryPerimeter=0;" edge="1" parent="1" source="jyvZzx-nxZELp0weIz12-2" target="jyvZzx-nxZELp0weIz12-5">
          <mxGeometry width="50" height="50" relative="1" as="geometry">
            <mxPoint x="400" y="280" as="sourcePoint" />
            <mxPoint x="450" y="230" as="targetPoint" />
          </mxGeometry>
        </mxCell>
        <mxCell id="jyvZzx-nxZELp0weIz12-11" value="" style="endArrow=classic;html=1;entryX=0.5;entryY=0;entryDx=0;entryDy=0;exitX=0;exitY=0.5;exitDx=0;exitDy=0;" edge="1" parent="1" source="jyvZzx-nxZELp0weIz12-2" target="jyvZzx-nxZELp0weIz12-4">
          <mxGeometry width="50" height="50" relative="1" as="geometry">
            <mxPoint x="410" y="230" as="sourcePoint" />
            <mxPoint x="410.03999999999996" y="291.02" as="targetPoint" />
            <Array as="points">
              <mxPoint x="190" y="170" />
              <mxPoint x="190" y="210" />
            </Array>
          </mxGeometry>
        </mxCell>
        <mxCell id="jyvZzx-nxZELp0weIz12-12" value="" style="endArrow=classic;html=1;exitX=0.5;exitY=1;exitDx=0;exitDy=0;entryX=0.5;entryY=0;entryDx=0;entryDy=0;" edge="1" parent="1" source="jyvZzx-nxZELp0weIz12-2" target="jyvZzx-nxZELp0weIz12-6">
          <mxGeometry width="50" height="50" relative="1" as="geometry">
            <mxPoint x="410" y="230" as="sourcePoint" />
            <mxPoint x="200" y="290" as="targetPoint" />
            <Array as="points">
              <mxPoint x="540" y="230" />
            </Array>
          </mxGeometry>
        </mxCell>
        <mxCell id="jyvZzx-nxZELp0weIz12-13" value="" style="endArrow=classic;html=1;entryX=0.5;entryY=0;entryDx=0;entryDy=0;exitX=0.5;exitY=1;exitDx=0;exitDy=0;" edge="1" parent="1" source="jyvZzx-nxZELp0weIz12-2" target="jyvZzx-nxZELp0weIz12-7">
          <mxGeometry width="50" height="50" relative="1" as="geometry">
            <mxPoint x="410" y="230" as="sourcePoint" />
            <mxPoint x="550" y="290" as="targetPoint" />
            <Array as="points">
              <mxPoint x="580" y="202" />
              <mxPoint x="710" y="202" />
            </Array>
          </mxGeometry>
        </mxCell>
        <mxCell id="jyvZzx-nxZELp0weIz12-14" value="" style="endArrow=classic;html=1;entryX=-0.008;entryY=0.383;entryDx=0;entryDy=0;exitX=0.833;exitY=1.067;exitDx=0;exitDy=0;entryPerimeter=0;exitPerimeter=0;" edge="1" parent="1" source="jyvZzx-nxZELp0weIz12-5" target="jyvZzx-nxZELp0weIz12-3">
          <mxGeometry width="50" height="50" relative="1" as="geometry">
            <mxPoint x="400" y="280" as="sourcePoint" />
            <mxPoint x="450" y="230" as="targetPoint" />
            <Array as="points">
              <mxPoint x="420" y="440" />
            </Array>
          </mxGeometry>
        </mxCell>
        <mxCell id="jyvZzx-nxZELp0weIz12-15" value="" style="endArrow=classic;html=1;exitX=0.5;exitY=1;exitDx=0;exitDy=0;" edge="1" parent="1" source="jyvZzx-nxZELp0weIz12-6" target="jyvZzx-nxZELp0weIz12-3">
          <mxGeometry width="50" height="50" relative="1" as="geometry">
            <mxPoint x="550" y="420" as="sourcePoint" />
            <mxPoint x="450" y="230" as="targetPoint" />
          </mxGeometry>
        </mxCell>
        <mxCell id="jyvZzx-nxZELp0weIz12-16" value="" style="endArrow=classic;html=1;exitX=0.5;exitY=1;exitDx=0;exitDy=0;entryX=1;entryY=0.5;entryDx=0;entryDy=0;" edge="1" parent="1" source="jyvZzx-nxZELp0weIz12-7" target="jyvZzx-nxZELp0weIz12-3">
          <mxGeometry width="50" height="50" relative="1" as="geometry">
            <mxPoint x="400" y="280" as="sourcePoint" />
            <mxPoint x="550" y="420" as="targetPoint" />
            <Array as="points">
              <mxPoint x="710" y="400" />
              <mxPoint x="710" y="450" />
            </Array>
          </mxGeometry>
        </mxCell>
        <mxCell id="jyvZzx-nxZELp0weIz12-17" value="" style="endArrow=classic;html=1;exitX=0.433;exitY=1.017;exitDx=0;exitDy=0;exitPerimeter=0;" edge="1" parent="1" source="jyvZzx-nxZELp0weIz12-4" target="jyvZzx-nxZELp0weIz12-8">
          <mxGeometry width="50" height="50" relative="1" as="geometry">
            <mxPoint x="400" y="480" as="sourcePoint" />
            <mxPoint x="450" y="430" as="targetPoint" />
            <Array as="points">
              <mxPoint x="182" y="580" />
            </Array>
          </mxGeometry>
        </mxCell>
        <mxCell id="jyvZzx-nxZELp0weIz12-18" value="" style="endArrow=classic;html=1;exitX=0.5;exitY=1;exitDx=0;exitDy=0;entryX=0.5;entryY=0;entryDx=0;entryDy=0;entryPerimeter=0;" edge="1" parent="1" source="jyvZzx-nxZELp0weIz12-5" target="jyvZzx-nxZELp0weIz12-8">
          <mxGeometry width="50" height="50" relative="1" as="geometry">
            <mxPoint x="400" y="480" as="sourcePoint" />
            <mxPoint x="450" y="430" as="targetPoint" />
          </mxGeometry>
        </mxCell>
        <mxCell id="jyvZzx-nxZELp0weIz12-19" value="" style="endArrow=classic;html=1;entryX=0.767;entryY=0;entryDx=0;entryDy=0;entryPerimeter=0;exitX=0;exitY=0.5;exitDx=0;exitDy=0;" edge="1" parent="1" source="jyvZzx-nxZELp0weIz12-6" target="jyvZzx-nxZELp0weIz12-8">
          <mxGeometry width="50" height="50" relative="1" as="geometry">
            <mxPoint x="400" y="480" as="sourcePoint" />
            <mxPoint x="450" y="430" as="targetPoint" />
            <Array as="points">
              <mxPoint x="480" y="400" />
              <mxPoint x="400" y="400" />
              <mxPoint x="400" y="480" />
            </Array>
          </mxGeometry>
        </mxCell>
        <mxCell id="jyvZzx-nxZELp0weIz12-20" value="" style="endArrow=classic;html=1;entryX=1;entryY=0;entryDx=0;entryDy=52.5;entryPerimeter=0;" edge="1" parent="1" target="jyvZzx-nxZELp0weIz12-8">
          <mxGeometry width="50" height="50" relative="1" as="geometry">
            <mxPoint x="760" y="341" as="sourcePoint" />
            <mxPoint x="370" y="540" as="targetPoint" />
            <Array as="points">
              <mxPoint x="760" y="590" />
            </Array>
          </mxGeometry>
        </mxCell>
        <mxCell id="jyvZzx-nxZELp0weIz12-21" value="" style="endArrow=classic;html=1;entryX=1;entryY=0.5;entryDx=0;entryDy=0;entryPerimeter=0;exitX=0.5;exitY=1;exitDx=0;exitDy=0;" edge="1" parent="1" source="jyvZzx-nxZELp0weIz12-3" target="jyvZzx-nxZELp0weIz12-8">
          <mxGeometry width="50" height="50" relative="1" as="geometry">
            <mxPoint x="400" y="480" as="sourcePoint" />
            <mxPoint x="450" y="430" as="targetPoint" />
            <Array as="points">
              <mxPoint x="550" y="580" />
            </Array>
          </mxGeometry>
        </mxCell>
        <mxCell id="jyvZzx-nxZELp0weIz12-22" value="Learning&lt;div&gt; Microservice&lt;/div&gt;" style="rounded=1;whiteSpace=wrap;html=1;" vertex="1" parent="1">
          <mxGeometry x="790" y="280" width="120" height="60" as="geometry" />
        </mxCell>
        <mxCell id="jyvZzx-nxZELp0weIz12-23" value="" style="endArrow=classic;html=1;entryX=0.5;entryY=0;entryDx=0;entryDy=0;exitX=1;exitY=0.5;exitDx=0;exitDy=0;" edge="1" parent="1" source="jyvZzx-nxZELp0weIz12-2" target="jyvZzx-nxZELp0weIz12-22">
          <mxGeometry width="50" height="50" relative="1" as="geometry">
            <mxPoint x="410" y="212" as="sourcePoint" />
            <mxPoint x="720" y="290" as="targetPoint" />
            <Array as="points">
              <mxPoint x="660" y="180" />
              <mxPoint x="850" y="180" />
            </Array>
          </mxGeometry>
        </mxCell>
        <mxCell id="jyvZzx-nxZELp0weIz12-24" value="Bluepages" style="rounded=1;whiteSpace=wrap;html=1;" vertex="1" parent="1">
          <mxGeometry x="780" y="390" width="120" height="60" as="geometry" />
        </mxCell>
        <mxCell id="jyvZzx-nxZELp0weIz12-25" value="Your Learnings" style="rounded=1;whiteSpace=wrap;html=1;" vertex="1" parent="1">
          <mxGeometry x="930" y="390" width="120" height="60" as="geometry" />
        </mxCell>
        <mxCell id="jyvZzx-nxZELp0weIz12-26" value="" style="endArrow=classic;html=1;exitX=1;exitY=0.75;exitDx=0;exitDy=0;" edge="1" parent="1" source="jyvZzx-nxZELp0weIz12-3" target="jyvZzx-nxZELp0weIz12-24">
          <mxGeometry width="50" height="50" relative="1" as="geometry">
            <mxPoint x="570" y="420" as="sourcePoint" />
            <mxPoint x="620" y="370" as="targetPoint" />
            <Array as="points">
              <mxPoint x="850" y="465" />
            </Array>
          </mxGeometry>
        </mxCell>
        <mxCell id="jyvZzx-nxZELp0weIz12-27" value="" style="endArrow=classic;html=1;entryX=0.583;entryY=0.033;entryDx=0;entryDy=0;entryPerimeter=0;exitX=0.75;exitY=1;exitDx=0;exitDy=0;" edge="1" parent="1" source="jyvZzx-nxZELp0weIz12-22" target="jyvZzx-nxZELp0weIz12-25">
          <mxGeometry width="50" height="50" relative="1" as="geometry">
            <mxPoint x="840" y="370" as="sourcePoint" />
            <mxPoint x="620" y="370" as="targetPoint" />
            <Array as="points">
              <mxPoint x="880" y="370" />
              <mxPoint x="1000" y="370" />
            </Array>
          </mxGeometry>
        </mxCell>
      </root>
    </mxGraphModel>
  </diagram>
</mxfile>
